<?xml version="1.0" encoding="utf-8"?>
<!-- Generator: Adobe Illustrator 25.0.1, SVG Export Plug-In . SVG Version: 6.00 Build 0)  -->
<svg version="1.1" id="Layer_1" xmlns="http://www.w3.org/2000/svg" xmlns:xlink="http://www.w3.org/1999/xlink" x="0px" y="0px"
	 viewBox="0 0 45 48" style="enable-background:new 0 0 45 48;" xml:space="preserve">
<style type="text/css">
	.st0{fill:#FFFFFF;}
</style>
<path class="st0" d="M18,34.75c0-3.31,0-6.62,0-9.93c0-3.13,1.38-5.4,4.18-6.84c3.02-1.55,6.03-3.14,9.04-4.7
	c0.56-0.29,0.96-0.71,0.65-1.35c-0.33-0.7-0.94-0.6-1.54-0.33c-0.11,0.05-0.21,0.12-0.31,0.17c-1.88,0.98-3.75,1.95-5.63,2.93
	c-1.27,0.66-2.57,1.27-3.8,2c-2.96,1.75-4.49,4.36-4.49,7.81c-0.01,6.41-0.01,12.82-0.01,19.23c0,1.2-0.07,1.25-1.09,0.67
	c-1.69-0.95-3.37-1.92-5.07-2.83c-0.52-0.28-0.71-0.62-0.71-1.2c0.01-6.77-0.02-13.53,0.02-20.3c0.02-2.78,1.43-4.8,3.83-6.12
	c3.08-1.69,6.18-3.36,9.27-5.04c0.18-0.1,0.37-0.19,0.55-0.3c0.49-0.3,0.75-0.72,0.45-1.27c-0.31-0.58-0.82-0.65-1.38-0.36
	c-0.85,0.44-1.69,0.89-2.53,1.34c-2.36,1.28-4.71,2.56-7.07,3.84c-3.4,1.84-5.14,4.65-5.12,8.55c0.03,6.05,0.01,12.1,0.01,18.15
	c0,1.21-0.01,1.21-1.09,0.6c-0.7-0.39-1.42-0.76-2.09-1.21c-2.36-1.6-3.63-3.81-3.64-6.69c-0.01-5.04,0-10.07,0-15.11
	c0-3.1,1.36-5.48,4.02-7.01c4.67-2.69,9.38-5.32,14.13-7.88c2.56-1.38,5.25-1.34,7.8,0.06c5.15,2.81,10.27,5.69,15.38,8.57
	c1.64,0.93,2.64,2.3,2.48,4.31c-0.03,0.41-0.01,0.83-0.01,1.25c-0.01,1.68-0.8,2.89-2.23,3.71c-4.16,2.38-8.33,4.76-12.5,7.14
	c-0.23,0.13-0.46,0.28-0.65,0.46c-0.33,0.33-0.41,0.74-0.13,1.13c0.27,0.37,0.65,0.52,1.1,0.35c0.19-0.07,0.38-0.17,0.56-0.27
	c4.39-2.52,8.79-5.03,13.17-7.57c0.57-0.33,0.67-0.13,0.67,0.38c0,1.28,0,2.56,0,3.84c-0.01,1.71-0.82,2.95-2.28,3.78
	c-3.88,2.21-7.77,4.42-11.65,6.63c-0.34,0.19-0.67,0.39-1,0.59c-0.57,0.33-1,0.77-0.58,1.44c0.4,0.65,0.99,0.51,1.57,0.18
	c1.4-0.8,2.81-1.57,4.2-2.39c3.11-1.83,6.31-3.49,9.35-5.43c0.44-0.28,0.58-0.17,0.58,0.3c-0.01,1.28,0.08,2.57-0.04,3.84
	c-0.15,1.61-0.98,2.9-2.38,3.69c-5.24,2.96-10.48,5.92-15.77,8.8c-2.33,1.27-4.8,1.22-7.26,0.21c-0.7-0.29-0.99-0.67-0.98-1.46
	C18.03,41.66,18,38.2,18,34.75z"/>
</svg>
